<?xml version="1.0" encoding="UTF-8"?>
<svg width="249px" height="64px" viewBox="0 0 249 64" version="1.1" xmlns="http://www.w3.org/2000/svg" xmlns:xlink="http://www.w3.org/1999/xlink">
    <title>Hotel Murano logo-black</title>
    <g id="Property-Logos" stroke="none" stroke-width="1" fill="none" fill-rule="evenodd">
        <g id="Hotel-Murano" transform="translate(-25.000000, -26.000000)" fill="#222222" fill-rule="nonzero">
            <g id="Hotel-Murano-logo-black" transform="translate(25.000000, 26.000000)">
                <g id="Group">
                    <path d="M15.4729317,35.1734892 L15.4729317,18.5899101 C15.4729317,14.3085432 12.5753957,12.2574281 8.15967626,12.2574281 C6.01899281,12.2574281 3.52451439,13.0142806 1.82719424,14.0398381 L1.82719424,35.1734892 L0.134352518,35.1734892 L0.134352518,0.174658273 L1.82719424,0.174658273 L1.82719424,12.4365647 C3.52003597,11.5005755 5.92942446,10.743723 8.15967626,10.743723 C13.6009532,10.743723 17.1657734,13.5069065 17.1657734,18.5899101 L17.1657734,35.1734892" id="Path"></path>
                    <path d="M32.2311691,12.2126439 C26.8346763,12.2126439 24.2954137,16.9821583 24.2954137,23.1355036 C24.2954137,29.2888489 26.8346763,34.1031475 32.2311691,34.1031475 C37.6276619,34.1031475 40.1669245,29.2888489 40.1669245,23.1355036 C40.1669245,16.9821583 37.6231835,12.2126439 32.2311691,12.2126439 M32.2311691,35.6213309 C25.8539029,35.6213309 22.6025719,30.2248381 22.6025719,23.1355036 C22.6025719,16.0461691 25.8583813,10.6944604 32.2311691,10.6944604 C38.6084353,10.6944604 41.8597662,16.0461691 41.8597662,23.1355036 C41.8597662,30.2248381 38.6039568,35.6213309 32.2311691,35.6213309" id="Shape"></path>
                    <path d="M53.9291007,35.3526259 C50.6285072,35.3526259 47.9996763,33.5254317 47.9996763,29.7366906 L47.9996763,12.4813489 L44.1213669,12.4813489 L44.1213669,11.1423022 L47.9996763,11.1423022 L47.9996763,4.98895683 L49.6477338,4.23210432 L49.6477338,11.1423022 L55.3532374,11.1423022 L55.3532374,12.4813489 L49.6477338,12.4813489 L49.6477338,29.7366906 C49.6477338,32.6342266 51.6540647,33.8389209 53.9291007,33.8389209 C54.4620324,33.8389209 54.9994424,33.7941367 55.3577158,33.6597842 L55.3577158,35.1779676 C55.0442266,35.3078417 54.5963849,35.3526259 53.9291007,35.3526259" id="Path"></path>
                    <path d="M67.5390108,12.2126439 C62.3664388,12.2126439 59.3345504,16.4940108 59.2001978,22.7772302 L74.8477878,20.4574101 C74.807482,14.8011691 71.8651619,12.2126439 67.5390108,12.2126439 M76.4555396,21.6665827 L59.244982,24.2506295 C59.5584712,30.7577698 63.0785072,34.1031475 68.5645683,34.1031475 C70.9739568,34.1031475 73.5132194,33.4806475 74.9866187,32.5894424 L75.6539029,33.9732734 C74.1401978,34.9092626 71.4621043,35.6213309 68.5645683,35.6213309 C62.0126439,35.6213309 57.5969245,31.4743165 57.5969245,23.1355036 C57.5969245,15.7326799 61.4304496,10.6944604 67.5390108,10.6944604 C72.8459353,10.6944604 76.5003237,14.1294065 76.5003237,20.4126259 C76.5003237,20.8201619 76.5003237,21.218741 76.4555396,21.6665827" id="Shape"></path>
                    <rect id="Rectangle" x="81.6818525" y="0.174658273" width="1.69284173" height="34.9988309"></rect>
                    <path d="M128.40518,35.1734892 L128.40518,19.1676259 C128.40518,16.8030216 126.891475,15.4684532 124.437302,15.4684532 C122.919119,15.4684532 121.718903,15.916295 120.868004,16.6731475 L120.868004,35.1779676 L114.759442,35.1779676 L114.759442,18.8989209 C114.759442,16.7582374 113.156169,15.4639748 110.567644,15.4639748 C109.183813,15.4639748 108.068687,15.6878957 107.222266,16.0416906 L107.222266,35.1690108 L101.158489,35.1690108 L101.158489,12.342518 C103.612662,11.3617446 106.774424,10.6048921 110.209371,10.6048921 C114.08768,10.6048921 116.541853,11.8095863 117.921205,13.0590647 C119.43491,11.8991547 122.381709,10.6048921 125.991313,10.6048921 C131.298237,10.6048921 134.509263,13.6815647 134.509263,18.5406475 L134.509263,35.1690108" id="Path"></path>
                    <path d="M149.391043,35.7108993 C142.74955,35.7108993 139.26982,33.0372842 139.26982,26.7943705 L139.26982,11.1467806 L145.333597,11.1467806 L145.333597,26.928723 C145.333597,29.5127698 146.717428,30.717464 149.391043,30.717464 C150.954011,30.717464 152.243795,30.448759 152.915558,30.1845324 L152.915558,11.1467806 L158.979335,11.1467806 L158.979335,33.9732734 C156.878957,34.9943525 153.135,35.7108993 149.391043,35.7108993" id="Path"></path>
                    <path d="M175.674874,15.8670324 C174.913543,15.6431115 173.93277,15.508759 172.951996,15.508759 C171.836871,15.508759 170.67696,15.6878957 169.920108,16.0013849 L169.920108,35.1734892 L163.856331,35.1734892 L163.856331,12.3469964 C166.355288,11.366223 169.785755,10.6093705 173.668543,10.6093705 C174.913543,10.6093705 175.983885,10.6989388 176.79,10.8332914" id="Path"></path>
                    <path d="M192.446547,23.5833453 C187.986043,23.8072662 184.06295,24.2058453 184.06295,27.8199281 C184.06295,30.094964 185.84536,31.3847482 189.011601,31.3847482 C190.305863,31.3847482 191.819568,31.1608273 192.446547,30.8921223 M189.190737,35.7108993 C181.96705,35.7108993 178.357446,32.8581475 178.357446,27.9542806 C178.357446,21.3978777 185.178076,20.1080935 192.446547,19.705036 L192.446547,18.4555576 C192.446547,15.9610791 190.708921,15.0206115 187.941259,15.0206115 C185.666223,15.0206115 182.90304,15.7326799 181.210198,16.4492266 L179.696493,12.3469964 C181.702824,11.5005755 185.13777,10.6093705 188.613022,10.6093705 C194.766367,10.6093705 198.196835,13.018759 198.196835,19.1676259 L198.196835,33.968795 C196.418903,34.9047842 192.80482,35.7108993 189.190737,35.7108993" id="Shape"></path>
                    <path d="M216.907662,35.1734892 L216.907662,19.3467626 C216.907662,16.9373741 215.438741,15.4684532 212.675558,15.4684532 C211.251421,15.4684532 209.86759,15.7371583 209.061475,16.0461691 L209.061475,35.1734892 L202.997698,35.1734892 L202.997698,12.3469964 C205.541439,11.3214388 208.613633,10.6093705 212.581511,10.6093705 C219.715629,10.6093705 223.011745,13.5516906 223.011745,18.7242626 L223.011745,35.1779676" id="Path"></path>
                    <path d="M237.691996,15.3788849 C234.480971,15.3788849 232.877698,18.2764209 232.877698,23.0907194 C232.877698,27.905018 234.480971,30.7577698 237.691996,30.7577698 C240.903022,30.7577698 242.506295,27.905018 242.506295,23.0907194 C242.506295,18.2764209 240.903022,15.3788849 237.691996,15.3788849 M237.691996,35.7108993 C230.69223,35.7108993 226.813921,30.3144065 226.813921,23.139982 C226.813921,15.9610791 230.696709,10.6138489 237.691996,10.6138489 C244.687284,10.6138489 248.570072,15.9655576 248.570072,23.139982 C248.570072,30.3144065 244.691763,35.7108993 237.691996,35.7108993" id="Shape"></path>
                </g>
                <g id="Group" transform="translate(51.501799, 48.366906)">
                    <path d="M123.120647,11.2184353 C121.351673,9.39124101 121.208363,5.9652518 122.820594,4.01714029 C123.698363,2.9557554 124.844838,2.3869964 126.192842,2.25264388 C127.814029,2.08694245 129.273993,2.48104317 130.456295,3.69021583 C130.89518,3.30059353 131.307194,2.92888489 131.732644,2.54821942 C131.217626,1.98393885 130.621996,1.55848921 129.963669,1.22260791 C128.508183,0.483669065 126.963129,0.304532374 125.368813,0.600107914 C123.42518,0.962859712 121.866691,1.92571942 120.832176,3.64543165 C119.936493,5.13226619 119.681223,6.75793165 119.891709,8.4552518 C120.097716,10.1570504 120.782914,11.6394065 122.108525,12.7634892 C124.280558,14.6085971 127.652806,14.9534353 130.183112,13.6188669 C130.783219,13.3008993 131.334065,12.9247122 131.808777,12.4141727 C131.383327,12.0021583 130.984748,11.6170144 130.572734,11.2184353 C128.279784,13.3322482 124.822446,12.9739748 123.120647,11.2184353 Z" id="Path"></path>
                    <path d="M34.0494065,0.326917077 C31.1205216,0.331402878 29.0694065,2.37356115 29.0738776,5.28453237 C29.0783633,8.17758993 31.1473921,10.2063129 34.0897122,10.2018419 C36.996205,10.1973561 39.056277,8.14624101 39.0518058,5.26214029 C39.0473201,2.35564748 36.9827698,0.322446043 34.0494065,0.326917077 Z M34.0897122,8.56277623 C32.2401259,8.57169065 30.8518165,7.16098921 30.8473273,5.27557554 C30.8428597,3.38568345 32.2222122,1.96602518 34.0673201,1.96154676 C35.9034712,1.96154676 37.2559532,3.35433453 37.2604428,5.25318345 C37.2649101,7.15203237 35.9213849,8.55377698 34.0897122,8.56277623 Z" id="Shape"></path>
                    <path d="M53.7275719,0.734460432 L53.1319424,0.734460432 C53.019982,0.734460432 52.9035432,0.729982014 52.7915827,0.725503597 C52.7423201,0.725503597 52.697536,0.725503597 52.6572302,0.734460432 L52.4601799,0.734460432 L52.0616007,1.74658273 L52.0660791,1.74658273 C50.8076439,4.8769964 49.5402518,8.00293165 48.2728597,11.1288669 C48.1653777,11.3975719 48.0489388,11.666277 47.9190647,11.9842446 C47.8608453,11.8498921 47.825018,11.7692806 47.7936691,11.6886691 C47.2293885,10.2958813 46.6651079,8.89861511 46.0963489,7.50582734 C45.2991906,5.54428058 44.497554,3.58721223 43.6959173,1.63014388 L43.3466007,0.734460432 L42.8002338,0.734460432 C42.33,0.725503597 41.8552878,0.734460432 41.3492266,0.734460432 C41.5104496,1.12408273 41.653759,1.4778777 41.8015468,1.83167266 C43.2391187,5.30692446 44.6811691,8.77769784 46.1142626,12.2574281 L46.8935072,14.1607554 L48.5639568,14.1607554 C48.5639568,14.1607554 48.5639568,14.1607554 48.5639568,14.1607554 C48.5997842,14.1652338 48.6356115,14.1607554 48.6714388,14.1607554 L48.9401439,14.1607554 L49.0565827,13.8830935 C49.0655396,13.8651799 49.0744964,13.8427878 49.0834532,13.8248741 C49.3028957,13.2919424 49.5223381,12.7634892 49.7417806,12.2305576 L49.7552158,12.1947302 L49.7552158,12.1947302 C51.2733993,8.50003597 52.8005396,4.80982014 54.3232014,1.11960432 C54.3679856,1.00764388 54.4038129,0.891205036 54.457554,0.743417266 C54.2067626,0.734460432 53.9649281,0.738938849 53.7275719,0.734460432 L53.7275719,0.734460432 Z" id="Path"></path>
                    <path d="M7.23264388,0.806115108 C6.60118705,0.752374101 5.9652518,0.743417266 5.32931655,0.738938849 C3.66334532,0.729982014 1.99289568,0.734460432 0.300053957,0.734460432 C0.300053957,5.23079137 0.300053957,9.68233813 0.300053957,14.1294065 C0.922553957,14.1294065 1.52266187,14.1294065 2.15859712,14.1294065 C2.15859712,12.7321403 2.15859712,11.3527878 2.15859712,9.94656475 C2.33773381,9.94656475 2.47208633,9.94656475 2.60643885,9.94656475 C4.02609712,9.94208633 5.4457554,9.98239209 6.86093525,9.91969424 C8.47764388,9.84356115 9.78982014,9.15388489 10.5869784,7.68496403 C11.097518,6.74001799 11.2139568,5.71893885 11.097518,4.65307554 C10.8735971,2.5930036 9.28375899,0.980773381 7.23264388,0.806115108 Z M9.27928058,5.7055036 C9.07327338,7.32221223 7.99397482,8.2223741 6.3548741,8.22685252 C5.48158273,8.23133094 4.60829137,8.23133094 3.735,8.22685252 L3.735,8.2223741 L2.17203237,8.2223741 C2.17203237,6.41757194 2.17203237,4.25001799 2.17203237,2.44969424 L2.27951439,2.44969424 C2.28399281,2.45417266 2.28399281,2.45417266 2.28847122,2.45417266 C3.78426259,2.46760791 5.28453237,2.41386691 6.77584532,2.51239209 C8.58960432,2.63330935 9.48080935,4.11566547 9.27928058,5.7055036 Z" id="Shape"></path>
                    <path d="M67.9465468,12.396259 L67.6464928,12.396259 C67.6196223,12.396259 67.5927518,12.3917806 67.5614029,12.3917806 C67.337482,12.3917806 67.1090827,12.3917806 66.8851619,12.396259 L64.3414209,12.396259 L64.3414209,12.4007374 C63.033723,12.4007374 61.7215468,12.4007374 60.4138489,12.4007374 C60.2794964,12.4007374 60.1496223,12.4007374 60.0063129,12.4007374 C60.0063129,10.9855576 60.0063129,9.61068345 60.0063129,8.1955036 C62.5142266,8.1955036 64.9907914,8.1955036 67.4628777,8.1955036 C67.4628777,7.61778777 67.4628777,7.07589928 67.4628777,6.49818345 C64.9594424,6.49818345 62.4828777,6.49818345 59.9973561,6.49818345 C59.9973561,5.1367446 59.9973561,3.81561151 59.9973561,2.44969424 C62.6082734,2.44969424 65.201277,2.44969424 67.8121942,2.44969424 C67.8121942,1.85854317 67.8121942,1.31217626 67.8121942,0.747895683 C64.578777,0.747895683 61.358795,0.747895683 58.1298561,0.747895683 C58.1298561,5.21735612 58.1298561,9.67338129 58.1298561,14.1294065 C60.2033633,14.1294065 62.2723921,14.1294065 64.3414209,14.1294065 C65.5416367,14.1294065 66.7418525,14.1294065 67.9510252,14.1294065 L67.9510252,12.9336691 C67.9510252,12.8888849 67.9555036,12.8396223 67.9555036,12.7948381 C67.959982,12.7276619 67.9555036,12.6694424 67.9510252,12.6201799 L67.9510252,12.396259 L67.9465468,12.396259 Z" id="Path"></path>
                    <path d="M145.391817,12.6201799 L145.391817,12.396259 L145.091763,12.396259 C145.064892,12.396259 145.038022,12.3917806 145.006673,12.3917806 C144.782752,12.3917806 144.554353,12.3917806 144.330432,12.396259 L141.786691,12.396259 L141.786691,12.4007374 C140.478993,12.4007374 139.166817,12.4007374 137.859119,12.4007374 C137.724766,12.4007374 137.594892,12.4007374 137.451583,12.4007374 C137.451583,10.9855576 137.451583,9.61068345 137.451583,8.1955036 C139.959496,8.1955036 142.436061,8.1955036 144.908147,8.1955036 C144.908147,7.61778777 144.908147,7.07589928 144.908147,6.49818345 C142.404712,6.49818345 139.928147,6.49818345 137.442626,6.49818345 C137.442626,5.1367446 137.442626,3.81561151 137.442626,2.44969424 C140.053543,2.44969424 142.646547,2.44969424 145.257464,2.44969424 C145.257464,1.85854317 145.257464,1.31217626 145.257464,0.747895683 C142.024047,0.747895683 138.804065,0.747895683 135.575126,0.747895683 C135.575126,5.21735612 135.575126,9.67338129 135.575126,14.1294065 C137.648633,14.1294065 139.717662,14.1294065 141.786691,14.1294065 C142.986906,14.1294065 144.187122,14.1294065 145.396295,14.1294065 L145.396295,12.9336691 C145.396295,12.8888849 145.400773,12.8396223 145.400773,12.7948381 C145.405252,12.7276619 145.400773,12.6694424 145.391817,12.6201799 Z" id="Path"></path>
                    <path d="M83.737446,0.752374101 C83.1239029,0.752374101 82.5282734,0.752374101 81.869946,0.752374101 C81.869946,4.12014388 81.869946,7.47447842 81.869946,10.9273381 C81.0907014,9.89282374 80.3831115,8.95235612 79.6710432,8.01188849 C78.0229856,5.82642086 76.3749281,3.64095324 74.7268705,1.45996403 L74.1939388,0.738938849 L73.7684892,0.738938849 L72.6264928,0.738938849 L72.6264928,0.734460432 C72.5817086,0.734460432 72.5414029,0.734460432 72.4966187,0.734460432 C72.4966187,5.22183453 72.4966187,9.67785971 72.4966187,14.1294065 C73.1191187,14.1294065 73.7147482,14.1294065 74.3641187,14.1294065 C74.3641187,10.7526799 74.3641187,7.39386691 74.3641187,3.94996403 C74.7313489,4.43811151 75.0403597,4.84564748 75.3448921,5.25318345 C77.297482,7.84618705 79.2500719,10.4436691 81.2071403,13.0366727 L82.0311691,14.1338849 L82.1207374,14.1338849 C82.1296942,14.1383633 82.1386511,14.1383633 82.1476079,14.1383633 C82.2326978,14.1428417 82.3177878,14.1383633 82.4073561,14.1338849 L83.7464029,14.1338849 L83.7464029,12.4007374 L83.7419245,12.396259 C83.737446,8.46868705 83.737446,4.69785971 83.737446,0.752374101 Z" id="Path"></path>
                    <path d="M115.583471,0.752374101 C114.969928,0.752374101 114.374299,0.752374101 113.715971,0.752374101 C113.715971,4.12014388 113.715971,7.47447842 113.715971,10.9273381 C112.936727,9.89282374 112.229137,8.95235612 111.517068,8.01188849 C109.869011,5.82642086 108.220953,3.64095324 106.572896,1.45996403 L106.039964,0.738938849 L105.614514,0.738938849 L104.472518,0.738938849 L104.472518,0.734460432 C104.427734,0.734460432 104.387428,0.734460432 104.342644,0.734460432 C104.342644,5.22183453 104.342644,9.67785971 104.342644,14.1294065 C104.965144,14.1294065 105.560773,14.1294065 106.210144,14.1294065 C106.210144,10.7526799 106.210144,7.39386691 106.210144,3.94996403 C106.577374,4.43811151 106.886385,4.84564748 107.190917,5.25318345 C109.143507,7.84618705 111.096097,10.4436691 113.053165,13.0366727 L113.877194,14.1338849 L113.966763,14.1338849 C113.975719,14.1383633 113.984676,14.1383633 113.993633,14.1383633 C114.078723,14.1428417 114.163813,14.1383633 114.253381,14.1338849 L115.592428,14.1338849 L115.592428,12.4007374 L115.58795,12.396259 C115.583471,8.46868705 115.583471,4.69785971 115.583471,0.752374101 Z" id="Path"></path>
                    <path d="M100.858435,13.2292446 C99.2148561,9.5703777 97.5757554,5.91151079 95.9366547,2.24816547 L95.9411331,2.24816547 L95.2783273,0.734460432 L95.1126259,0.734460432 C95.0767986,0.725503597 95.0320144,0.725503597 94.9827518,0.725503597 C94.9290108,0.729982014 94.8797482,0.729982014 94.8260072,0.734460432 L93.6078777,0.734460432 C93.5675719,0.734460432 93.5272662,0.729982014 93.4869604,0.729982014 C93.4466547,0.729982014 93.4063489,0.729982014 93.375,0.734460432 L93.1466007,0.734460432 L92.7435432,1.65253597 C90.9656115,5.63384892 89.178723,9.60620504 87.3918345,13.587518 C87.3157014,13.7576978 87.2440468,13.9368345 87.1544784,14.156277 C87.2753957,14.156277 87.3963129,14.156277 87.5127518,14.156277 L87.5127518,14.1607554 L88.7084892,14.1607554 C88.7667086,14.1607554 88.8294065,14.1652338 88.8876259,14.1652338 C88.9234532,14.1652338 88.9548022,14.1652338 88.9816727,14.1607554 L89.178723,14.1607554 L90.4550719,11.2318705 L97.9743345,11.2318705 C98.1624281,11.6797122 98.3997842,12.2260791 98.6281835,12.7410971 L98.623705,12.7410971 L99.2551619,14.1652338 L100.056799,14.1652338 C100.280719,14.1652338 100.50464,14.1652338 100.737518,14.1652338 L100.867392,14.1652338 L100.867392,14.1652338 C101.001745,14.1652338 101.140576,14.1652338 101.279406,14.1652338 C101.113705,13.802482 100.988309,13.5158633 100.858435,13.2292446 Z M91.2208813,9.48528777 C92.2150899,7.21473022 93.1913849,4.98447842 94.2035072,2.67361511 C95.2156295,4.98 96.1919245,7.21473022 97.1906115,9.48528777 C95.188759,9.48528777 93.2361691,9.48528777 91.2208813,9.48528777 Z" id="Shape"></path>
                    <path d="M38.3889928,12.3738669 C36.0288669,13.4666007 33.4179496,13.5696043 30.8876439,13.2426799 C28.527518,12.9381475 26.0106475,12.2529496 23.923705,11.0751259 C23.4758633,10.8243345 23.0325,10.4884532 22.463741,10.0182194 C22.2398201,9.8301259 21.9935072,9.62859712 21.7695863,9.40467626 C21.8367626,9.39571942 21.9039388,9.38676259 21.9666367,9.37332734 C24.3536331,8.80904676 25.5269784,7.47895683 25.6165468,5.2128777 C25.6747662,3.79769784 25.2090108,2.57508993 24.0580576,1.68836331 C23.1623741,0.994208633 22.109946,0.743417266 20.9992986,0.738938849 C19.4855935,0.729982014 17.9718885,0.734460432 16.4581835,0.734460432 L16.4581835,0.734460432 L14.8101259,0.734460432 L14.8101259,0.756852518 C14.8101259,0.756852518 14.8056475,0.756852518 14.8056475,0.756852518 C14.8056475,5.23079137 14.8056475,9.68233813 14.8056475,14.1294065 C15.4281475,14.1294065 16.0282554,14.1294065 16.6641906,14.1294065 C16.6641906,12.5619604 16.6641906,11.0124281 16.6641906,9.44946043 L19.5751619,9.44946043 C20.2290108,10.528759 21.4695324,11.3393525 22.4906115,12.0021583 C23.6102158,12.7276619 24.8507374,13.2695504 26.1136511,13.6815647 C27.3720863,14.0891007 28.6708273,14.3667626 29.9785252,14.5593345 C31.4205755,14.7742986 32.8760612,14.9086511 34.3315468,14.8369964 C35.9616906,14.7563849 37.5425719,14.424982 39.0294065,13.7576978 L38.3889928,12.3738669 C38.3934712,12.3738669 38.3889928,12.3738669 38.3889928,12.3738669 Z M16.6686691,7.68048561 C16.6686691,6.12647482 16.6686691,4.06640288 16.6686691,2.49447842 L20.3633633,2.49447842 C20.6634173,2.49895683 20.9679496,2.50343525 21.2680036,2.50791367 C22.2442986,2.53030576 23.0728058,2.91544964 23.4982554,3.85143885 C23.9371403,4.81877698 23.9013129,5.79507194 23.2832914,6.69523381 C22.8309712,7.35356115 22.1547302,7.66257194 21.3978777,7.68048561 C21.1694784,7.68944245 16.6686691,7.68048561 16.6686691,7.68048561 Z" id="Shape"></path>
                </g>
            </g>
        </g>
    </g>
</svg>